<svg width="813" height="216" viewBox="0 0 813 216" fill="none" xmlns="http://www.w3.org/2000/svg">
<path d="M21.3 68V138H13.4V68H21.3ZM44 101.9V105.1H21V101.9H44ZM48.4 68V71.3H21V68H48.4ZM44 104.9V112H43V110.6C43 109.067 42.4667 107.767 41.4 106.7C40.4 105.633 39.1333 105.1 37.6 105.1V104.9H44ZM44 95V102.1H37.6V101.9C39.1333 101.833 40.4 101.267 41.4 100.2C42.4667 99.1333 43 97.8333 43 96.3V95H44ZM48.4 71V78.4H47.4V77C47.4 75.4 46.8333 74.0667 45.7 73C44.6333 71.8667 43.3 71.3 41.7 71.3V71H48.4ZM48.4 66.2V69.1L36.2 68C37.6667 68 39.2 67.9 40.8 67.7C42.4667 67.5 44 67.2667 45.4 67C46.8 66.7333 47.8 66.4667 48.4 66.2ZM13.7 130.7V138H5.7V137C5.7 137 5.9 137 6.3 137C6.76667 137 7 137 7 137C8.73333 137 10.2 136.4 11.4 135.2C12.6667 133.933 13.3333 132.433 13.4 130.7H13.7ZM13.7 75.3H13.4C13.4 73.5667 12.7667 72.1 11.5 70.9C10.2333 69.6333 8.73333 69 7 69C7 69 6.8 69 6.4 69C6 69 5.8 69 5.8 69L5.7 68H13.7V75.3ZM21 130.7H21.3C21.3667 132.433 22 133.933 23.2 135.2C24.4667 136.4 25.9667 137 27.7 137C27.7 137 27.9 137 28.3 137C28.7 137 28.9333 137 29 137V138H21V130.7ZM71.9016 78V115.8C71.9016 122.2 73.5016 127.267 76.7016 131C79.9016 134.667 84.3349 136.5 90.0016 136.5C96.1349 136.5 100.935 134.767 104.402 131.3C107.935 127.767 109.735 122.967 109.802 116.9V78H114.702V116.8C114.702 123.733 112.468 129.233 108.002 133.3C103.602 137.367 97.5016 139.4 89.7016 139.4C81.7682 139.4 75.5016 137.4 70.9016 133.4C66.3682 129.333 64.1016 123.833 64.1016 116.9V78H71.9016ZM64.3016 78V83.3H64.1016C64.0349 82.1 63.5349 81.1 62.6016 80.3C61.7349 79.4333 60.6682 79 59.4016 79C59.4016 79 59.1349 79 58.6016 79C58.1349 79 57.9016 79 57.9016 79V78H64.3016ZM78.1016 78V79C78.1016 79 77.8349 79 77.3016 79C76.8349 79 76.6016 79 76.6016 79C75.3349 79 74.2349 79.4333 73.3016 80.3C72.3682 81.1 71.9016 82.1 71.9016 83.3H71.7016V78H78.1016ZM110.002 78V83.3H109.802C109.735 82.1 109.235 81.1 108.302 80.3C107.435 79.4333 106.335 79 105.002 79C105.002 79 104.735 79 104.202 79C103.735 79 103.502 79 103.502 79V78H110.002ZM120.902 78V79C120.902 79 120.635 79 120.102 79C119.635 79 119.402 79 119.402 79C118.202 79 117.135 79.4333 116.202 80.3C115.268 81.1 114.768 82.1 114.702 83.3H114.502V78H120.902ZM134.621 76.5L190.621 128.6L191.621 139.4L135.621 87L134.621 76.5ZM134.921 131.8V138H127.421V137C127.421 137 127.688 137 128.221 137C128.821 137 129.121 137 129.121 137C130.654 137 131.954 136.5 133.021 135.5C134.088 134.5 134.621 133.267 134.621 131.8H134.921ZM140.621 131.8C140.621 133.267 141.154 134.5 142.221 135.5C143.354 136.5 144.654 137 146.121 137C146.121 137 146.388 137 146.921 137C147.521 137 147.821 137 147.821 137V138H140.321V131.8H140.621ZM134.621 76.5L140.521 83.7L140.621 138H134.621V88.8C134.621 85.4 134.454 82.5 134.121 80.1C133.788 77.7 133.621 76.5 133.621 76.5H134.621ZM191.521 78V126.8C191.521 128.933 191.588 130.967 191.721 132.9C191.921 134.833 192.088 136.4 192.221 137.6C192.421 138.8 192.521 139.4 192.521 139.4H191.621L185.621 132.3V78H191.521ZM191.321 84.2V78H198.721V79C198.721 79 198.421 79 197.821 79C197.288 79 197.021 79 197.021 79C195.554 79 194.288 79.5 193.221 80.5C192.154 81.5 191.588 82.7333 191.521 84.2H191.321ZM185.621 84.2C185.554 82.7333 184.988 81.5 183.921 80.5C182.854 79.5 181.554 79 180.021 79C180.021 79 179.721 79 179.121 79C178.588 79 178.321 79 178.321 79V78H185.821V84.2H185.621Z" fill="#EAEAEA"/>
<path d="M463.1 68H476.1C480.567 68 484.367 68.8 487.5 70.4C490.7 71.9333 493.133 74.1667 494.8 77.1C496.467 79.9667 497.333 83.3667 497.4 87.3C497.4 90.4333 496.8 93.2333 495.6 95.7C494.4 98.1667 492.767 100.267 490.7 102C488.7 103.667 486.4 104.933 483.8 105.8C481.2 106.6 478.5 106.9 475.7 106.7C472.967 106.433 470.333 105.6 467.8 104.2V103.2C467.8 103.2 468.333 103.267 469.4 103.4C470.467 103.533 471.833 103.533 473.5 103.4C475.233 103.267 477.033 102.9 478.9 102.3C480.767 101.633 482.5 100.5 484.1 98.9C485.767 97.3 487.033 95.1 487.9 92.3C488.1 91.5667 488.267 90.6667 488.4 89.6C488.533 88.4667 488.567 87.3667 488.5 86.3C488.367 81.7667 487.133 78.1333 484.8 75.4C482.533 72.6 479.3 71.2 475.1 71.2H464.1C464.1 71.2 464 70.9333 463.8 70.4C463.667 69.8667 463.5 69.3333 463.3 68.8C463.167 68.2667 463.1 68 463.1 68ZM464.4 68V138H456.4V68H464.4ZM456.7 130.7V138H448.7V137C448.767 137 449 137 449.4 137C449.8 137 450 137 450 137C451.733 137 453.2 136.4 454.4 135.2C455.667 133.933 456.333 132.433 456.4 130.7H456.7ZM456.7 75.3H456.4C456.4 73.5667 455.767 72.1 454.5 70.9C453.233 69.6333 451.733 69 450 69C450 69 449.8 69 449.4 69C449.067 69 448.867 69 448.8 69L448.7 68H456.7V75.3ZM464.1 130.7H464.4C464.467 132.433 465.1 133.933 466.3 135.2C467.567 136.4 469.067 137 470.8 137C470.8 137 471 137 471.4 137C471.867 137 472.1 137 472.1 137V138H464.1V130.7ZM521.105 78V138H513.405V78H521.105ZM547.405 134.7L547.605 138H520.905V134.7H547.405ZM553.205 123L547.905 138H532.405L535.705 134.7C538.972 134.7 541.639 134.2 543.705 133.2C545.772 132.2 547.472 130.833 548.805 129.1C550.139 127.3 551.272 125.267 552.205 123H553.205ZM513.605 131.6L514.705 138H506.305V137C506.305 137 506.505 137 506.905 137C507.372 137 507.605 137 507.605 137C509.272 137 510.639 136.467 511.705 135.4C512.772 134.333 513.339 133.067 513.405 131.6H513.605ZM520.805 84.4V78H528.105V79C528.105 79 527.905 79 527.505 79C527.105 79 526.905 79 526.905 79C525.372 79 524.005 79.5333 522.805 80.6C521.672 81.6 521.105 82.8667 521.105 84.4H520.805ZM513.605 84.4H513.405C513.339 82.8667 512.739 81.6 511.605 80.6C510.472 79.5333 509.072 79 507.405 79C507.405 79 507.205 79 506.805 79C506.472 79 506.305 79 506.305 79V78H513.605V84.4ZM588.507 76.4L616.407 137.4H607.007L586.107 86.9L588.507 76.4ZM569.307 130.8C568.574 132.8 568.674 134.333 569.607 135.4C570.54 136.467 571.607 137 572.807 137H573.607V138H554.307V137C554.307 137 554.44 137 554.707 137C554.974 137 555.107 137 555.107 137C556.507 137 557.94 136.533 559.407 135.6C560.874 134.667 562.14 133.067 563.207 130.8H569.307ZM588.507 76.4L589.107 84.1L566.407 137.7H559.907L583.607 87C583.607 86.9333 583.807 86.5 584.207 85.7C584.607 84.8333 585.04 83.8 585.507 82.6C586.04 81.4 586.507 80.2333 586.907 79.1C587.307 77.9667 587.54 77.0667 587.607 76.4H588.507ZM599.807 115.3V118.5H573.507V115.3H599.807ZM604.307 130.8H613.407C614.407 133.067 615.64 134.667 617.107 135.6C618.574 136.533 619.974 137 621.307 137C621.307 137 621.44 137 621.707 137C621.974 137 622.107 137 622.107 137V138H600.107V137H600.907C602.04 137 603.074 136.467 604.007 135.4C604.94 134.333 605.04 132.8 604.307 130.8ZM631.723 76.5L687.723 128.6L688.723 139.4L632.723 87L631.723 76.5ZM632.023 131.8V138H624.523V137C624.523 137 624.789 137 625.323 137C625.923 137 626.223 137 626.223 137C627.756 137 629.056 136.5 630.123 135.5C631.189 134.5 631.723 133.267 631.723 131.8H632.023ZM637.723 131.8C637.723 133.267 638.256 134.5 639.323 135.5C640.456 136.5 641.756 137 643.223 137C643.223 137 643.489 137 644.023 137C644.623 137 644.923 137 644.923 137V138H637.423V131.8H637.723ZM631.723 76.5L637.623 83.7L637.723 138H631.723V88.8C631.723 85.4 631.556 82.5 631.223 80.1C630.889 77.7 630.723 76.5 630.723 76.5H631.723ZM688.623 78V126.8C688.623 128.933 688.689 130.967 688.823 132.9C689.023 134.833 689.189 136.4 689.323 137.6C689.523 138.8 689.623 139.4 689.623 139.4H688.723L682.723 132.3V78H688.623ZM688.423 84.2V78H695.823V79C695.823 79 695.523 79 694.923 79C694.389 79 694.123 79 694.123 79C692.656 79 691.389 79.5 690.323 80.5C689.256 81.5 688.689 82.7333 688.623 84.2H688.423ZM682.723 84.2C682.656 82.7333 682.089 81.5 681.023 80.5C679.956 79.5 678.656 79 677.123 79C677.123 79 676.823 79 676.223 79C675.689 79 675.423 79 675.423 79V78H682.923V84.2H682.723ZM719.152 78V138H711.452V78H719.152ZM745.452 134.7L745.652 138H718.952V134.7H745.452ZM740.952 106.5V109.6H718.952V106.5H740.952ZM745.552 78V81.3H718.952V78H745.552ZM751.252 123L745.952 138H730.452L733.752 134.7C737.019 134.7 739.686 134.2 741.752 133.2C743.819 132.2 745.519 130.833 746.852 129.1C748.186 127.3 749.319 125.267 750.252 123H751.252ZM740.952 109.4V115.6H739.852V114.4C739.852 113.133 739.452 112.033 738.652 111.1C737.919 110.1 736.786 109.6 735.252 109.6V109.4H740.952ZM740.952 100.5V106.7H735.252V106.5C736.786 106.433 737.919 105.933 738.652 105C739.452 104.067 739.852 102.933 739.852 101.6V100.5H740.952ZM745.552 81V88.5H744.452V87.1C744.452 85.4333 743.952 84.0667 742.952 83C741.952 81.8667 740.552 81.3 738.752 81.3V81H745.552ZM745.552 76.4V79L734.352 78C736.352 78 738.486 77.8333 740.752 77.5C743.086 77.1 744.686 76.7333 745.552 76.4ZM711.652 131.6L712.752 138H704.352V137C704.352 137 704.552 137 704.952 137C705.419 137 705.652 137 705.652 137C707.319 137 708.686 136.467 709.752 135.4C710.819 134.333 711.386 133.067 711.452 131.6H711.652ZM711.652 84.3H711.452C711.386 82.7667 710.819 81.5 709.752 80.5C708.686 79.5 707.319 79 705.652 79C705.652 79 705.419 79 704.952 79C704.552 79 704.352 79 704.352 79V78H712.752L711.652 84.3ZM787.133 78.3V138H779.333V78.3H787.133ZM810.933 77.9V81.1H755.533V77.9H810.933ZM810.933 80.9V88.4H809.833V86.9C809.833 85.2333 809.333 83.8667 808.333 82.8C807.333 81.7333 805.933 81.1667 804.133 81.1V80.9H810.933ZM810.933 76.3V78.9L799.833 77.9C801.166 77.9 802.566 77.8333 804.033 77.7C805.566 77.5 806.966 77.2667 808.233 77C809.499 76.7333 810.399 76.5 810.933 76.3ZM779.533 131.6V138H772.333V137C772.399 137 772.599 137 772.933 137C773.333 137 773.533 137 773.533 137C775.133 137 776.466 136.467 777.533 135.4C778.666 134.333 779.266 133.067 779.333 131.6H779.533ZM786.833 131.6H787.133C787.199 133.067 787.799 134.333 788.933 135.4C790.066 136.467 791.433 137 793.033 137C793.033 137 793.199 137 793.533 137C793.933 137 794.133 137 794.133 137V138H786.833V131.6ZM762.333 80.9V81.1C760.599 81.1667 759.199 81.7333 758.133 82.8C757.133 83.8667 756.633 85.2333 756.633 86.9V88.4H755.533V80.9H762.333ZM755.533 76.3C756.133 76.5 757.033 76.7333 758.233 77C759.499 77.2667 760.866 77.5 762.333 77.7C763.866 77.8333 765.299 77.9 766.633 77.9L755.533 78.9V76.3Z" fill="#EAEAEA"/>
<circle cx="323" cy="108" r="108" fill="#EAEAEA"/>
<g filter="url(#filter0_d_361_36)">
<circle cx="323" cy="108" r="77.1429" fill="url(#paint0_linear_361_36)"/>
</g>
<defs>
<filter id="filter0_d_361_36" x="233.857" y="26.8571" width="174.286" height="174.286" filterUnits="userSpaceOnUse" color-interpolation-filters="sRGB">
<feFlood flood-opacity="0" result="BackgroundImageFix"/>
<feColorMatrix in="SourceAlpha" type="matrix" values="0 0 0 0 0 0 0 0 0 0 0 0 0 0 0 0 0 0 127 0" result="hardAlpha"/>
<feMorphology radius="2" operator="dilate" in="SourceAlpha" result="effect1_dropShadow_361_36"/>
<feOffset dx="-2" dy="6"/>
<feGaussianBlur stdDeviation="4"/>
<feComposite in2="hardAlpha" operator="out"/>
<feColorMatrix type="matrix" values="0 0 0 0 0 0 0 0 0 0 0 0 0 0 0 0 0 0 0.4 0"/>
<feBlend mode="normal" in2="BackgroundImageFix" result="effect1_dropShadow_361_36"/>
<feBlend mode="normal" in="SourceGraphic" in2="effect1_dropShadow_361_36" result="shape"/>
</filter>
<linearGradient id="paint0_linear_361_36" x1="323" y1="30.8571" x2="323" y2="185.143" gradientUnits="userSpaceOnUse">
<stop stop-color="#EAEAEA"/>
<stop offset="1" stop-color="#131313"/>
</linearGradient>
</defs>
</svg>
