<svg width="220" height="220" viewBox="0 0 220 220" fill="none" xmlns="http://www.w3.org/2000/svg">
<circle cx="110" cy="110" r="110" fill="#EAEAEA"/>
<g filter="url(#filter0_d_366_2)">
<path fill-rule="evenodd" clip-rule="evenodd" d="M155.952 73.4401V44.5055C176.543 58.9795 190 82.9183 190 110C190 154.183 154.183 190 110 190C97.0705 190 84.8574 186.933 74.0486 181.486V146.56C86.3862 144.22 95.7152 133.38 95.7152 120.361C95.7152 105.634 83.7762 93.6946 69.0486 93.6946C54.321 93.6946 42.3819 105.634 42.3819 120.361C42.3819 133.38 51.7109 144.22 64.0486 146.56V175.495C43.4568 161.021 30 137.082 30 110C30 65.8172 65.8172 30 110 30C122.93 30 135.143 33.0673 145.952 38.5139V73.4401C133.614 75.7805 124.285 86.6202 124.285 99.6388C124.285 114.366 136.224 126.305 150.952 126.305C165.679 126.305 177.618 114.366 177.618 99.6388C177.618 86.6202 168.289 75.7805 155.952 73.4401Z" fill="url(#paint0_linear_366_2)"/>
</g>
<defs>
<filter id="filter0_d_366_2" x="18" y="26" width="180" height="180" filterUnits="userSpaceOnUse" color-interpolation-filters="sRGB">
<feFlood flood-opacity="0" result="BackgroundImageFix"/>
<feColorMatrix in="SourceAlpha" type="matrix" values="0 0 0 0 0 0 0 0 0 0 0 0 0 0 0 0 0 0 127 0" result="hardAlpha"/>
<feMorphology radius="2" operator="dilate" in="SourceAlpha" result="effect1_dropShadow_366_2"/>
<feOffset dx="-2" dy="6"/>
<feGaussianBlur stdDeviation="4"/>
<feComposite in2="hardAlpha" operator="out"/>
<feColorMatrix type="matrix" values="0 0 0 0 0 0 0 0 0 0 0 0 0 0 0 0 0 0 0.4 0"/>
<feBlend mode="normal" in2="BackgroundImageFix" result="effect1_dropShadow_366_2"/>
<feBlend mode="normal" in="SourceGraphic" in2="effect1_dropShadow_366_2" result="shape"/>
</filter>
<linearGradient id="paint0_linear_366_2" x1="110" y1="30" x2="110" y2="190" gradientUnits="userSpaceOnUse">
<stop stop-color="#595959"/>
<stop offset="1" stop-color="#131313"/>
</linearGradient>
</defs>
</svg>
