<svg width="675" height="220" viewBox="0 0 675 220" fill="none" xmlns="http://www.w3.org/2000/svg">
<circle cx="110" cy="110" r="110" fill="#EAEAEA"/>
<g filter="url(#filter0_d_366_8)">
<path fill-rule="evenodd" clip-rule="evenodd" d="M155.952 73.4401V44.5055C176.543 58.9795 190 82.9183 190 110C190 154.183 154.183 190 110 190C97.0705 190 84.8574 186.933 74.0486 181.486V146.56C86.3862 144.22 95.7152 133.38 95.7152 120.361C95.7152 105.634 83.7762 93.6946 69.0486 93.6946C54.321 93.6946 42.3819 105.634 42.3819 120.361C42.3819 133.38 51.7109 144.22 64.0486 146.56V175.495C43.4568 161.021 30 137.082 30 110C30 65.8172 65.8172 30 110 30C122.93 30 135.143 33.0673 145.952 38.5139V73.4401C133.614 75.7805 124.285 86.6202 124.285 99.6388C124.285 114.366 136.224 126.305 150.952 126.305C165.679 126.305 177.618 114.366 177.618 99.6388C177.618 86.6202 168.289 75.7805 155.952 73.4401Z" fill="url(#paint0_linear_366_8)"/>
</g>
<rect x="194" y="40" width="481" height="140" fill="#EAEAEA"/>
<path d="M238.96 134.64C237.2 134.693 235.253 134.533 233.12 134.16C230.987 133.84 228.907 133.253 226.88 132.4C224.853 131.547 223.093 130.427 221.6 129.04C220.107 127.653 219.093 125.947 218.56 123.92C220.48 125.627 223.093 126.88 226.4 127.68C229.707 128.427 233.067 128.8 236.48 128.8C241.013 128.8 244.96 128.293 248.32 127.28C249.28 127.013 250.4 126.587 251.68 126C252.96 125.36 254.213 124.64 255.44 123.84C256.667 122.987 257.68 122.053 258.48 121.04C259.333 120.027 259.76 118.987 259.76 117.92C259.76 117.173 259.52 116.453 259.04 115.76C258.56 115.067 257.787 114.373 256.72 113.68C256.08 113.307 255.147 112.907 253.92 112.48C252.747 112 251.467 111.467 250.08 110.88C248.693 110.24 247.387 109.52 246.16 108.72C244.933 107.867 243.947 106.88 243.2 105.76C242.507 104.587 242.24 103.253 242.4 101.76C242.667 99.5733 243.653 97.4133 245.36 95.28C247.12 93.0933 249.307 91.0667 251.92 89.2C254.587 87.28 257.44 85.6 260.48 84.16C263.573 82.72 266.587 81.6 269.52 80.8C272.507 79.9467 275.147 79.52 277.44 79.52C279.787 79.52 281.787 79.9733 283.44 80.88C285.147 81.7867 285.867 83.3333 285.6 85.52C285.493 86.48 284.827 87.6267 283.6 88.96C282.427 90.2933 281.013 91.76 279.36 93.36C277.707 94.96 276.053 96.64 274.4 98.4C272.8 100.16 271.467 101.947 270.4 103.76C269.387 105.573 268.933 107.333 269.04 109.04C268.187 108.347 267.547 107.573 267.12 106.72C266.747 105.867 266.56 104.987 266.56 104.08C266.56 102.8 266.827 101.493 267.36 100.16C267.893 98.8267 268.56 97.5733 269.36 96.4C270.16 95.1733 270.907 94.1333 271.6 93.28C272.827 91.7867 274.213 90.3733 275.76 89.04C277.307 87.7067 278.88 86.48 280.48 85.36C280 84.6667 279.173 84.32 278 84.32C276.773 84.32 275.387 84.5867 273.84 85.12C272.347 85.6533 270.933 86.24 269.6 86.88C268.32 87.4667 267.413 87.92 266.88 88.24C264.587 89.4667 262.267 90.8533 259.92 92.4C257.627 93.9467 255.493 95.52 253.52 97.12C251.6 98.72 250.027 100.213 248.8 101.6C247.627 102.933 246.987 104.053 246.88 104.96C246.773 106.08 247.253 107.04 248.32 107.84C249.387 108.587 250.773 109.28 252.48 109.92C254.187 110.56 255.867 111.307 257.52 112.16C259.76 113.28 261.387 114.56 262.4 116C263.413 117.44 263.92 118.933 263.92 120.48C263.92 122.4 263.2 124.293 261.76 126.16C260.32 127.973 258.373 129.493 255.92 130.72C253.733 131.787 251.44 132.613 249.04 133.2C246.693 133.787 244.587 134.16 242.72 134.32C240.907 134.533 239.653 134.64 238.96 134.64ZM272.566 132.72C270.486 132.72 268.913 132.213 267.846 131.2C266.833 130.133 266.326 128.773 266.326 127.12C266.326 126.107 266.46 125.12 266.726 124.16C266.993 123.2 267.286 122.347 267.606 121.6C267.233 121.973 266.86 122.32 266.486 122.64C266.166 122.907 265.9 123.12 265.686 123.28C265.473 123.44 265.286 123.52 265.126 123.52C264.913 123.52 264.806 123.387 264.806 123.12C264.806 122.747 265.073 122.32 265.606 121.84C267.473 120.293 268.94 118.933 270.006 117.76C271.073 116.533 272.193 115.413 273.366 114.4C275.34 112.693 277.446 111.36 279.686 110.4C281.926 109.44 284.166 108.96 286.406 108.96C288.753 108.96 290.593 109.52 291.926 110.64C293.26 111.76 293.926 113.413 293.926 115.6C293.926 116.827 293.553 118.24 292.806 119.84C292.113 121.44 290.993 123.093 289.446 124.8C288.806 125.493 288.086 126.187 287.286 126.88C286.486 127.52 285.793 128 285.206 128.32C287.82 128.053 290.273 127.147 292.566 125.6C294.86 124 296.913 122.427 298.726 120.88C298.993 120.72 299.18 120.64 299.286 120.64C299.553 120.64 299.686 120.773 299.686 121.04C299.686 121.253 299.553 121.493 299.286 121.76C296.993 123.947 294.513 125.787 291.846 127.28C289.233 128.773 286.326 129.493 283.126 129.44C281.26 130.453 279.42 131.253 277.606 131.84C275.846 132.427 274.166 132.72 272.566 132.72ZM276.166 130.48C276.913 130.48 277.713 130.347 278.566 130.08C279.42 129.813 280.273 129.467 281.126 129.04C280.806 129.04 280.486 128.88 280.166 128.56C279.9 128.24 279.766 127.813 279.766 127.28C279.766 126.213 280.166 125.12 280.966 124C281.766 122.88 282.753 121.92 283.926 121.12C285.1 120.32 286.246 119.92 287.366 119.92C288.006 119.92 288.593 120.107 289.126 120.48C289.713 120.8 290.033 121.253 290.086 121.84C290.993 120.827 291.606 119.733 291.926 118.56C292.3 117.387 292.486 116.293 292.486 115.28C292.486 113.893 292.033 112.853 291.126 112.16C290.273 111.413 289.1 111.04 287.606 111.04C286.166 111.04 284.566 111.547 282.806 112.56C281.1 113.573 279.473 114.88 277.926 116.48C276.433 118.08 275.18 119.813 274.166 121.68C273.206 123.547 272.726 125.333 272.726 127.04C272.726 129.333 273.873 130.48 276.166 130.48ZM353.688 138.64C352.461 138.64 351.581 138.213 351.048 137.36C350.568 136.56 350.328 135.653 350.328 134.64C350.328 133.307 350.648 132.053 351.288 130.88C352.674 128.32 354.408 125.653 356.488 122.88C358.568 120.053 360.728 117.253 362.968 114.48C365.261 111.653 367.341 108.987 369.208 106.48C367.928 106.32 366.568 106.24 365.128 106.24C361.501 106.24 357.554 106.693 353.288 107.6C351.954 107.867 350.701 108.187 349.528 108.56C348.408 108.88 347.394 109.04 346.488 109.04C345.901 109.04 345.421 108.933 345.048 108.72C344.888 108.613 344.674 108.427 344.408 108.16C344.194 107.84 344.088 107.467 344.088 107.04C344.088 106.453 344.568 105.787 345.528 105.04C346.488 104.24 348.381 103.573 351.208 103.04C353.074 102.72 355.314 102.56 357.928 102.56C360.114 102.56 362.354 102.693 364.648 102.96C366.994 103.227 369.074 103.653 370.888 104.24C372.914 101.413 374.381 98.96 375.288 96.88C376.194 94.7467 376.648 92.9333 376.648 91.44C376.648 89.04 375.634 87.36 373.608 86.4C371.634 85.44 369.101 84.96 366.008 84.96C364.034 84.96 361.901 85.12 359.608 85.44C357.368 85.7067 355.074 86.1067 352.728 86.64C352.248 86.7467 351.181 87.0133 349.528 87.44C347.874 87.8133 345.901 88.32 343.608 88.96C341.368 89.5467 339.048 90.24 336.648 91.04C334.248 91.84 331.981 92.6933 329.848 93.6C327.768 94.5067 326.061 95.4667 324.728 96.48C323.448 97.44 322.808 98.4267 322.808 99.44C322.808 100.293 323.394 101.12 324.568 101.92C324.674 102.027 324.728 102.107 324.728 102.16C324.728 102.267 324.594 102.32 324.328 102.32C324.008 102.32 323.714 102.24 323.448 102.08C321.901 101.013 321.128 99.4667 321.128 97.44C321.128 95.9467 321.634 94.3733 322.648 92.72C323.661 91.0667 325.234 89.6533 327.368 88.48C330.088 86.9333 333.128 85.5467 336.488 84.32C339.848 83.04 343.314 81.9733 346.888 81.12C350.514 80.2133 354.061 79.5467 357.528 79.12C360.994 78.64 364.221 78.4 367.208 78.4C371.154 78.4 374.248 78.8 376.488 79.6C378.781 80.4 380.408 81.4933 381.368 82.88C382.328 84.2667 382.808 85.8133 382.808 87.52C382.808 89.8133 382.114 92.24 380.728 94.8C379.394 97.36 377.901 99.6533 376.248 101.68C375.821 102.213 375.368 102.773 374.888 103.36C374.408 103.947 373.874 104.56 373.288 105.2C374.088 105.627 374.808 106.16 375.448 106.8C375.821 107.28 376.008 107.68 376.008 108C376.008 108.373 375.794 108.56 375.368 108.56C375.048 108.56 374.674 108.427 374.248 108.16C373.874 107.893 373.474 107.68 373.048 107.52C372.674 107.36 372.248 107.2 371.768 107.04C370.274 108.853 368.674 110.773 366.968 112.8C365.261 114.773 363.634 116.72 362.088 118.64C360.541 120.56 359.154 122.347 357.928 124C357.234 124.96 356.461 126.027 355.608 127.2C354.754 128.373 354.008 129.6 353.368 130.88C352.781 132.16 352.488 133.467 352.488 134.8C352.488 135.547 352.621 136.213 352.888 136.8C353.154 137.387 353.688 137.68 354.488 137.68C354.861 137.68 355.288 137.6 355.768 137.44L356.088 137.36C356.301 137.36 356.408 137.44 356.408 137.6C356.408 137.867 356.194 138.08 355.768 138.24C354.861 138.507 354.168 138.64 353.688 138.64ZM394.623 135.12C393.93 134.853 393.236 134.373 392.543 133.68C391.903 132.987 391.583 131.787 391.583 130.08C391.583 128.64 391.823 127.147 392.303 125.6C392.783 124 393.396 122.427 394.143 120.88C392.756 122.64 391.236 124.373 389.583 126.08C387.983 127.787 386.356 129.2 384.703 130.32C383.103 131.387 381.61 131.92 380.223 131.92C379.05 131.92 378.063 131.6 377.263 130.96C376.516 130.32 376.143 129.333 376.143 128C376.143 127.04 376.33 126 376.703 124.88C377.076 123.76 377.743 122.507 378.703 121.12C379.663 119.733 380.703 118.373 381.823 117.04C382.996 115.653 384.01 114.48 384.863 113.52C385.45 112.827 385.743 112.267 385.743 111.84C385.743 111.307 385.45 111.04 384.863 111.04C384.223 111.04 383.316 111.467 382.143 112.32C380.916 113.227 379.61 114.347 378.223 115.68C376.836 116.96 375.53 118.213 374.303 119.44C373.076 120.613 372.036 121.547 371.183 122.24C371.023 122.4 370.863 122.48 370.703 122.48C370.436 122.48 370.303 122.32 370.303 122C370.303 121.733 370.543 121.387 371.023 120.96C373.37 118.933 375.316 117.093 376.863 115.44C378.41 113.733 379.93 112.293 381.423 111.12C382.223 110.48 383.05 110.027 383.903 109.76C384.756 109.44 385.556 109.28 386.303 109.28C387.583 109.28 388.65 109.653 389.503 110.4C390.356 111.147 390.783 112.187 390.783 113.52C390.783 114.533 390.516 115.6 389.983 116.72C389.396 118.053 388.596 119.387 387.583 120.72C386.623 122 385.69 123.253 384.783 124.48C384.09 125.493 383.583 126.32 383.263 126.96C382.943 127.6 382.783 128.08 382.783 128.4C382.783 128.827 382.996 129.04 383.423 129.04C383.85 129.04 384.463 128.8 385.263 128.32C386.063 127.84 386.89 127.227 387.743 126.48C388.33 125.947 388.836 125.467 389.263 125.04C389.743 124.56 390.09 124.213 390.303 124C391.53 122.72 392.756 121.36 393.983 119.92C395.21 118.427 396.276 117.067 397.183 115.84C397.876 114.933 398.41 114.24 398.783 113.76C399.21 113.28 399.663 112.773 400.143 112.24C401.05 111.227 402.01 110.693 403.023 110.64C403.61 110.64 404.276 110.773 405.023 111.04C405.823 111.253 406.596 111.707 407.343 112.4C406.81 113.147 406.01 114.187 404.943 115.52C403.93 116.8 402.81 118.24 401.583 119.84C400.41 121.387 399.263 122.987 398.143 124.64C397.076 126.293 396.196 127.84 395.503 129.28C394.81 130.72 394.463 131.973 394.463 133.04C394.463 133.787 394.676 134.373 395.103 134.8C395.316 135.013 395.316 135.12 395.103 135.12C394.89 135.173 394.73 135.173 394.623 135.12ZM407.022 132.4C406.489 132.4 405.849 132.267 405.102 132C404.355 131.787 403.609 131.36 402.862 130.72C403.449 129.92 404.302 128.853 405.422 127.52C406.489 126.133 407.635 124.613 408.862 122.96C410.089 121.307 411.235 119.653 412.302 118C411.449 118.853 410.515 119.76 409.502 120.72C408.489 121.68 407.475 122.56 406.462 123.36C406.249 123.573 406.009 123.68 405.742 123.68C405.529 123.68 405.422 123.573 405.422 123.36C405.422 123.093 405.635 122.773 406.062 122.4C407.555 121.067 409.209 119.547 411.022 117.84C412.889 116.08 414.249 114.293 415.102 112.48C415.369 111.84 415.502 111.253 415.502 110.72C415.502 110.027 415.369 109.6 415.102 109.44C414.889 109.28 414.782 109.067 414.782 108.8C414.782 108.32 415.022 108.08 415.502 108.08C415.769 108.08 415.982 108.133 416.142 108.24C416.729 108.507 417.289 109.013 417.822 109.76C418.355 110.507 418.622 111.627 418.622 113.12C418.622 113.973 418.515 114.96 418.302 116.08C418.089 117.147 417.715 118.373 417.182 119.76C417.982 118.693 418.782 117.653 419.582 116.64C420.435 115.627 421.209 114.72 421.902 113.92C423.342 112.267 424.782 111.093 426.222 110.4C427.715 109.653 429.049 109.28 430.222 109.28C431.609 109.28 432.729 109.68 433.582 110.48C434.435 111.28 434.862 112.32 434.862 113.6C434.862 114.613 434.595 115.653 434.062 116.72C433.902 117.147 433.529 117.813 432.942 118.72C432.355 119.573 431.715 120.507 431.022 121.52C430.329 122.533 429.689 123.44 429.102 124.24C428.409 125.093 427.929 125.84 427.662 126.48C427.395 127.067 427.262 127.547 427.262 127.92C427.262 128.453 427.555 128.72 428.142 128.72C428.889 128.72 429.929 128.32 431.262 127.52C432.062 127.04 432.969 126.4 433.982 125.6C435.049 124.747 436.089 123.893 437.102 123.04C438.169 122.133 439.022 121.387 439.662 120.8C439.875 120.587 440.062 120.48 440.222 120.48C440.435 120.48 440.542 120.613 440.542 120.88C440.542 121.2 440.409 121.493 440.142 121.76C438.542 123.253 436.675 124.88 434.542 126.64C432.462 128.4 430.409 129.76 428.382 130.72C426.729 131.52 425.209 131.92 423.822 131.92C422.649 131.92 421.715 131.627 421.022 131.04C420.329 130.4 419.982 129.493 419.982 128.32C419.982 127.467 420.195 126.453 420.622 125.28C421.155 123.84 421.902 122.4 422.862 120.96C423.875 119.52 424.915 118.16 425.982 116.88C427.102 115.547 428.062 114.427 428.862 113.52C429.555 112.773 429.902 112.133 429.902 111.6C429.902 111.12 429.582 110.88 428.942 110.88C428.302 110.88 427.342 111.253 426.062 112C424.835 112.693 423.449 113.84 421.902 115.44C419.715 117.733 417.795 120.213 416.142 122.88C414.489 125.547 412.595 128.053 410.462 130.4C409.289 131.733 408.142 132.4 407.022 132.4ZM493.827 151.28C491.214 151.28 488.787 150.88 486.547 150.08C484.36 149.333 482.52 148.107 481.027 146.4C479.587 144.693 478.654 142.453 478.227 139.68V139.44C478.227 139.173 478.307 139.04 478.467 139.04C478.734 139.04 478.92 139.227 479.027 139.6C479.614 142.64 481.08 145.12 483.427 147.04C485.774 148.96 488.467 149.92 491.507 149.92C493.64 149.92 495.694 149.467 497.667 148.56C499.64 147.707 501.507 146.587 503.267 145.2C505.027 143.813 506.654 142.32 508.147 140.72C509.694 139.173 511.107 137.733 512.387 136.4C515.374 133.093 518.067 129.653 520.467 126.08C522.92 122.507 524.84 119.227 526.227 116.24C524.414 118.107 522.174 120 519.507 121.92C516.894 123.84 514.014 125.68 510.867 127.44C507.72 129.2 504.414 130.747 500.947 132.08C497.534 133.467 494.12 134.533 490.707 135.28C489 135.653 487.347 135.92 485.747 136.08C484.147 136.293 482.627 136.4 481.187 136.4C476.92 136.4 473.294 135.707 470.307 134.32C467.32 132.933 465.027 131.04 463.427 128.64C461.88 126.24 461.107 123.52 461.107 120.48C461.107 117.493 461.88 114.293 463.427 110.88C464.974 107.467 467.374 104 470.627 100.48C473.027 97.8667 475.72 95.44 478.707 93.2C481.694 90.9067 484.734 88.8533 487.827 87.04C490.974 85.1733 494.04 83.6 497.027 82.32C500.067 81.04 502.84 80.1067 505.347 79.52C506.734 79.2 508.147 78.96 509.587 78.8C511.027 78.5867 512.414 78.48 513.747 78.48C516.04 78.48 518.12 78.7733 519.987 79.36C521.907 79.9467 523.454 80.88 524.627 82.16C525.8 83.44 526.387 85.12 526.387 87.2C526.387 88.3733 526.174 89.52 525.747 90.64C525.374 91.76 525.054 92.6133 524.787 93.2C524.627 93.52 524.467 93.68 524.307 93.68C524.2 93.68 524.12 93.5733 524.067 93.36C524.014 93.1467 524.04 92.9333 524.147 92.72C524.627 91.6533 524.867 90.7467 524.867 90C524.867 88.6667 524.28 87.7067 523.107 87.12C521.987 86.48 520.44 86.16 518.467 86.16C516.227 86.16 513.587 86.5067 510.547 87.2C507.507 87.8933 504.28 88.8533 500.867 90.08C497.507 91.3067 494.147 92.72 490.787 94.32C487.427 95.92 484.254 97.68 481.267 99.6C478.334 101.467 475.8 103.387 473.667 105.36C470.147 108.613 467.56 111.68 465.907 114.56C464.307 117.387 463.507 119.92 463.507 122.16C463.507 125.52 465.08 128.16 468.227 130.08C471.374 131.947 475.614 132.88 480.947 132.88C482.334 132.88 483.747 132.8 485.187 132.64C486.68 132.533 488.227 132.347 489.827 132.08C494.467 131.227 499.187 129.893 503.987 128.08C508.787 126.213 513.267 123.947 517.427 121.28C521.587 118.613 525.027 115.707 527.747 112.56C527.96 111.973 528.147 111.413 528.307 110.88C528.467 110.293 528.547 109.733 528.547 109.2C528.547 108.507 528.227 108.16 527.587 108.16C526.734 108.16 525.8 108.587 524.787 109.44C524.36 109.813 523.96 110 523.587 110C523.32 110 523.187 109.867 523.187 109.6C523.187 109.173 523.454 108.72 523.987 108.24C525.747 106.96 527.454 106.32 529.107 106.32C530.494 106.32 531.614 106.8 532.467 107.76C533 108.347 533.267 109.253 533.267 110.48C533.267 112.027 532.814 113.893 531.907 116.08C531.054 118.267 529.934 120.587 528.547 123.04C527.214 125.44 525.747 127.787 524.147 130.08C522.6 132.32 521.134 134.347 519.747 136.16C518.36 137.973 517.24 139.333 516.387 140.24C513.454 143.333 510.014 145.947 506.067 148.08C502.174 150.213 498.094 151.28 493.827 151.28ZM540.876 132.4C538.742 132.4 537.249 131.893 536.396 130.88C535.542 129.813 535.116 128.587 535.116 127.2C535.116 125.867 535.356 124.453 535.836 122.96C536.369 121.467 536.956 120.053 537.596 118.72C536.902 119.467 536.236 120.16 535.596 120.8C534.956 121.387 534.422 121.867 533.996 122.24C533.782 122.4 533.569 122.48 533.356 122.48C533.089 122.48 532.956 122.347 532.956 122.08C532.956 121.813 533.116 121.573 533.436 121.36C534.556 120.4 535.862 119.093 537.356 117.44C538.849 115.787 540.236 114.107 541.516 112.4C542.582 111.013 543.862 109.28 545.356 107.2C546.849 105.12 548.369 102.933 549.916 100.64C551.462 98.2933 552.796 96.16 553.916 94.24C554.076 93.92 554.236 93.52 554.396 93.04C554.609 92.56 554.716 92.1333 554.716 91.76C554.716 91.2267 554.502 90.96 554.076 90.96C553.969 90.96 553.649 91.0667 553.116 91.28C552.636 91.4933 552.156 91.7067 551.676 91.92C551.196 92.1333 550.902 92.24 550.796 92.24C550.369 92.24 550.396 92 550.876 91.52C551.729 90.88 552.796 90.2667 554.076 89.68C555.409 89.04 556.769 88.5067 558.156 88.08C559.542 87.6533 560.716 87.44 561.676 87.44C563.916 87.44 565.036 88.16 565.036 89.6C565.036 90.3467 564.689 91.3333 563.996 92.56C563.409 93.52 562.556 94.6667 561.436 96C560.316 97.28 559.062 98.6667 557.676 100.16C556.342 101.6 555.036 103.04 553.756 104.48C552.476 105.867 551.409 107.093 550.556 108.16C550.342 108.427 549.809 109.12 548.956 110.24C548.156 111.36 547.222 112.72 546.156 114.32C545.142 115.867 544.102 117.52 543.036 119.28C542.022 120.987 541.169 122.64 540.476 124.24C539.836 125.787 539.516 127.093 539.516 128.16C539.516 129.6 540.209 130.32 541.596 130.32C542.502 130.32 543.649 130.053 545.036 129.52C546.369 129.04 547.756 128.32 549.196 127.36C550.689 126.347 552.129 125.28 553.516 124.16C554.956 123.04 556.209 121.973 557.276 120.96C558.396 119.947 559.222 119.173 559.756 118.64C560.076 118.32 560.342 118.16 560.556 118.16C560.769 118.16 560.876 118.293 560.876 118.56C560.876 118.827 560.742 119.093 560.476 119.36C559.622 120.267 558.449 121.44 556.956 122.88C555.516 124.32 553.889 125.787 552.076 127.28C550.316 128.72 548.476 129.947 546.556 130.96C544.636 131.92 542.742 132.4 540.876 132.4ZM563.191 132.72C561.111 132.72 559.538 132.213 558.471 131.2C557.458 130.133 556.951 128.773 556.951 127.12C556.951 126.107 557.085 125.12 557.351 124.16C557.618 123.2 557.911 122.347 558.231 121.6C557.858 121.973 557.485 122.32 557.111 122.64C556.791 122.907 556.525 123.12 556.311 123.28C556.098 123.44 555.911 123.52 555.751 123.52C555.538 123.52 555.431 123.387 555.431 123.12C555.431 122.747 555.698 122.32 556.231 121.84C558.098 120.293 559.565 118.933 560.631 117.76C561.698 116.533 562.818 115.413 563.991 114.4C565.965 112.693 568.071 111.36 570.311 110.4C572.551 109.44 574.791 108.96 577.031 108.96C579.378 108.96 581.218 109.52 582.551 110.64C583.885 111.76 584.551 113.413 584.551 115.6C584.551 116.827 584.178 118.24 583.431 119.84C582.738 121.44 581.618 123.093 580.071 124.8C579.431 125.493 578.711 126.187 577.911 126.88C577.111 127.52 576.418 128 575.831 128.32C578.445 128.053 580.898 127.147 583.191 125.6C585.485 124 587.538 122.427 589.351 120.88C589.618 120.72 589.805 120.64 589.911 120.64C590.178 120.64 590.311 120.773 590.311 121.04C590.311 121.253 590.178 121.493 589.911 121.76C587.618 123.947 585.138 125.787 582.471 127.28C579.858 128.773 576.951 129.493 573.751 129.44C571.885 130.453 570.045 131.253 568.231 131.84C566.471 132.427 564.791 132.72 563.191 132.72ZM566.791 130.48C567.538 130.48 568.338 130.347 569.191 130.08C570.045 129.813 570.898 129.467 571.751 129.04C571.431 129.04 571.111 128.88 570.791 128.56C570.525 128.24 570.391 127.813 570.391 127.28C570.391 126.213 570.791 125.12 571.591 124C572.391 122.88 573.378 121.92 574.551 121.12C575.725 120.32 576.871 119.92 577.991 119.92C578.631 119.92 579.218 120.107 579.751 120.48C580.338 120.8 580.658 121.253 580.711 121.84C581.618 120.827 582.231 119.733 582.551 118.56C582.925 117.387 583.111 116.293 583.111 115.28C583.111 113.893 582.658 112.853 581.751 112.16C580.898 111.413 579.725 111.04 578.231 111.04C576.791 111.04 575.191 111.547 573.431 112.56C571.725 113.573 570.098 114.88 568.551 116.48C567.058 118.08 565.805 119.813 564.791 121.68C563.831 123.547 563.351 125.333 563.351 127.04C563.351 129.333 564.498 130.48 566.791 130.48ZM601.304 133.36C597.998 133.36 596.344 131.68 596.344 128.32C596.344 127.733 596.371 127.147 596.424 126.56C596.531 125.92 596.691 125.28 596.904 124.64C596.051 125.973 595.251 127.147 594.504 128.16C593.758 129.12 593.144 129.867 592.664 130.4C591.491 131.733 590.318 132.4 589.144 132.4C588.611 132.4 587.971 132.267 587.224 132C586.478 131.787 585.758 131.36 585.064 130.72C585.758 129.76 586.878 128.187 588.424 126C589.918 123.813 591.491 121.44 593.144 118.88C592.451 119.573 591.678 120.293 590.824 121.04C590.024 121.733 589.278 122.373 588.584 122.96C588.371 123.173 588.131 123.28 587.864 123.28C587.651 123.28 587.544 123.173 587.544 122.96C587.544 122.693 587.758 122.373 588.184 122C589.304 121.04 590.371 120.107 591.384 119.2C592.398 118.24 593.518 117.013 594.744 115.52C595.971 113.973 597.411 111.867 599.064 109.2C602.051 104.613 604.611 100.4 606.744 96.56C608.878 92.72 610.264 89.7333 610.904 87.6C611.011 87.3333 611.091 87.04 611.144 86.72C611.198 86.4 611.224 86.08 611.224 85.76C611.224 85.3333 611.118 84.96 610.904 84.64C610.691 84.2667 610.291 84.0533 609.704 84C609.598 84 609.544 83.9467 609.544 83.84C609.544 83.7333 609.598 83.68 609.704 83.68C610.824 83.7333 611.758 84.1333 612.504 84.88C613.251 85.5733 613.731 86.8 613.944 88.56C614.104 90 613.704 92.08 612.744 94.8C611.784 97.52 610.478 100.56 608.824 103.92C607.171 107.227 605.411 110.507 603.544 113.76C605.464 111.84 607.491 110.293 609.624 109.12C611.758 107.893 613.704 107.28 615.464 107.28C617.064 107.28 618.344 107.787 619.304 108.8C620.264 109.813 620.744 111.147 620.744 112.8C620.744 114.613 620.238 116.613 619.224 118.8C618.211 120.933 616.851 123.013 615.144 125.04C613.064 127.493 610.744 129.493 608.184 131.04C605.678 132.587 603.384 133.36 601.304 133.36ZM600.904 132.64C602.291 132.64 603.864 132.053 605.624 130.88C607.384 129.707 608.984 128 610.424 125.76C611.491 124.107 612.264 122.507 612.744 120.96C613.224 119.413 613.464 118.053 613.464 116.88C613.464 115.44 613.144 114.32 612.504 113.52C611.864 112.72 611.011 112.32 609.944 112.32C608.558 112.32 606.984 112.933 605.224 114.16C603.464 115.333 601.864 117.04 600.424 119.28C599.358 120.88 598.558 122.453 598.024 124C597.544 125.547 597.304 126.933 597.304 128.16C597.304 131.147 598.504 132.64 600.904 132.64ZM629.166 132.8C626.82 132.8 624.846 132.24 623.246 131.12C621.7 129.947 620.926 128.267 620.926 126.08C620.926 123.733 621.486 121.547 622.606 119.52C623.726 117.493 625.22 115.733 627.086 114.24C628.953 112.693 630.98 111.493 633.166 110.64C635.406 109.787 637.62 109.36 639.806 109.36C641.993 109.36 643.62 109.76 644.686 110.56C645.753 111.307 646.286 112.24 646.286 113.36C646.286 114.427 645.78 115.573 644.766 116.8C643.806 117.973 642.393 119.013 640.526 119.92C639.353 120.453 637.993 120.933 636.446 121.36C634.953 121.733 633.646 121.92 632.526 121.92C631.673 121.92 631.246 121.787 631.246 121.52C631.246 121.307 631.62 121.2 632.366 121.2C633.06 121.2 634.126 121.013 635.566 120.64C637.06 120.213 638.5 119.653 639.886 118.96C641.433 118.107 642.526 117.253 643.166 116.4C643.806 115.547 644.126 114.773 644.126 114.08C644.126 113.44 643.86 112.907 643.326 112.48C642.846 112.053 642.153 111.84 641.246 111.84C640.393 111.84 639.433 112.08 638.366 112.56C636.82 113.253 635.22 114.4 633.566 116C631.966 117.547 630.633 119.253 629.566 121.12C628.5 122.987 627.966 124.773 627.966 126.48C627.966 127.653 628.286 128.64 628.926 129.44C629.62 130.24 630.633 130.64 631.966 130.64C633.353 130.64 634.953 130.213 636.766 129.36C638.58 128.453 640.42 127.36 642.286 126.08C644.153 124.747 645.886 123.413 647.486 122.08C649.086 120.747 650.366 119.627 651.326 118.72C651.646 118.4 651.886 118.24 652.046 118.24C652.206 118.24 652.286 118.373 652.286 118.64C652.286 119.013 652.126 119.333 651.806 119.6C649.78 121.467 647.566 123.413 645.166 125.44C642.82 127.467 640.286 129.2 637.566 130.64C634.9 132.027 632.1 132.747 629.166 132.8Z" fill="#343434"/>
<defs>
<filter id="filter0_d_366_8" x="18" y="26" width="180" height="180" filterUnits="userSpaceOnUse" color-interpolation-filters="sRGB">
<feFlood flood-opacity="0" result="BackgroundImageFix"/>
<feColorMatrix in="SourceAlpha" type="matrix" values="0 0 0 0 0 0 0 0 0 0 0 0 0 0 0 0 0 0 127 0" result="hardAlpha"/>
<feMorphology radius="2" operator="dilate" in="SourceAlpha" result="effect1_dropShadow_366_8"/>
<feOffset dx="-2" dy="6"/>
<feGaussianBlur stdDeviation="4"/>
<feComposite in2="hardAlpha" operator="out"/>
<feColorMatrix type="matrix" values="0 0 0 0 0 0 0 0 0 0 0 0 0 0 0 0 0 0 0.4 0"/>
<feBlend mode="normal" in2="BackgroundImageFix" result="effect1_dropShadow_366_8"/>
<feBlend mode="normal" in="SourceGraphic" in2="effect1_dropShadow_366_8" result="shape"/>
</filter>
<linearGradient id="paint0_linear_366_8" x1="110" y1="30" x2="110" y2="190" gradientUnits="userSpaceOnUse">
<stop stop-color="#595959"/>
<stop offset="1" stop-color="#131313"/>
</linearGradient>
</defs>
</svg>
